<svg id="visual" viewBox="0 0 900 600" width="900" height="600" xmlns="http://www.w3.org/2000/svg" xmlns:xlink="http://www.w3.org/1999/xlink" version="1.1"><rect x="0" y="0" width="900" height="600" fill="#ffffff"></rect><defs><linearGradient id="grad1_0" x1="33.3%" y1="0%" x2="100%" y2="100%"><stop offset="20%" stop-color="#fdf2f6" stop-opacity="1"></stop><stop offset="80%" stop-color="#fdf2f6" stop-opacity="1"></stop></linearGradient></defs><defs><linearGradient id="grad1_1" x1="33.3%" y1="0%" x2="100%" y2="100%"><stop offset="20%" stop-color="#fdf2f6" stop-opacity="1"></stop><stop offset="80%" stop-color="#ffffff" stop-opacity="1"></stop></linearGradient></defs><defs><linearGradient id="grad2_0" x1="0%" y1="0%" x2="66.7%" y2="100%"><stop offset="20%" stop-color="#fdf2f6" stop-opacity="1"></stop><stop offset="80%" stop-color="#fdf2f6" stop-opacity="1"></stop></linearGradient></defs><defs><linearGradient id="grad2_1" x1="0%" y1="0%" x2="66.7%" y2="100%"><stop offset="20%" stop-color="#ffffff" stop-opacity="1"></stop><stop offset="80%" stop-color="#fdf2f6" stop-opacity="1"></stop></linearGradient></defs><g transform="translate(900, 0)"><path d="M0 422C-48.9 407.4 -97.7 392.9 -160 386.2C-222.2 379.5 -297.9 380.7 -344.2 344.2C-390.5 307.7 -407.5 233.6 -410.2 169.9C-412.9 106.3 -401.5 53.1 -390 0L0 0Z" fill="#fef8fa"></path><path d="M0 211C-24.4 203.7 -48.9 196.4 -80 193.1C-111.1 189.7 -148.9 190.3 -172.1 172.1C-195.2 153.8 -203.7 116.8 -205.1 85C-206.5 53.1 -200.7 26.6 -195 0L0 0Z" fill="#fdf2f6"></path></g><g transform="translate(0, 600)"><path d="M0 -405C64.9 -434.7 129.9 -464.4 186.3 -449.7C242.7 -435 290.5 -375.7 319.6 -319.6C348.7 -263.5 359 -210.4 380.6 -157.7C402.2 -104.9 435.1 -52.5 468 0L0 0Z" fill="#fef8fa"></path><path d="M0 -202.5C32.5 -217.4 64.9 -232.2 93.1 -224.8C121.3 -217.5 145.3 -187.9 159.8 -159.8C174.4 -131.7 179.5 -105.2 190.3 -78.8C201.1 -52.5 217.6 -26.2 234 0L0 0Z" fill="#fdf2f6"></path></g></svg>